# xmcd
#
# Track frame offsets: 
#        150
#        8923
#        30676
#        52412
#        74329
#        101341
#        126516
#        150882
#        179492
#        199414
#        218604
#        223736
#
# Disc length: 3245 seconds
#
# Revision: 0
# Processed by: cddbd v1.5.2PL0 Copyright (c) Steve Scherf et al.
# Submitted via: ExactAudioCopy v0.95b4
#
DISCID=b20cab0c
DTITLE=Royal Hunt - X
DYEAR=2010
DGENRE=Progressive Metal
TTITLE0=Episode X (Arrival)
TTITLE1=End Of The Line
TTITLE2=King For A Day
TTITLE3=The Well
TTITLE4=Army Of Slaves
TTITLE5=Shadowman
TTITLE6=Back To Square One
TTITLE7=Blood Red Stars
TTITLE8=The Last Leaf
TTITLE9=Falling Down
TTITLE10=Episode X (Departure)
TTITLE11=Sixth Sense
EXTD=
EXTT0=
EXTT1=
EXTT2=
EXTT3=
EXTT4=
EXTT5=
EXTT6=
EXTT7=
EXTT8=
EXTT9=
EXTT10=
EXTT11=
PLAYORDER=
